<?xml version="1.0" encoding="UTF-8"?>
<svg version="1.1" xmlns="http://www.w3.org/2000/svg" width="500" height="500">
<path d="M0 0 C165 0 330 0 500 0 C500 165 500 330 500 500 C335 500 170 500 0 500 C0 335 0 170 0 0 Z " fill="#FEFEFE" transform="translate(0,0)"/>
<path d="M0 0 C0.33 20.79 0.66 41.58 1 63 C3.97 63.495 3.97 63.495 7 64 C6.505 65.98 6.505 65.98 6 68 C5.11957031 68.13277344 4.23914063 68.26554687 3.33203125 68.40234375 C1.58986328 68.66724609 1.58986328 68.66724609 -0.1875 68.9375 C-1.91033203 69.19853516 -1.91033203 69.19853516 -3.66796875 69.46484375 C-6.46325212 69.91379313 -9.22933586 70.42082162 -12 71 C-12.66 69.68 -13.32 68.36 -14 67 C-14.804375 67.495 -15.60875 67.99 -16.4375 68.5 C-20.85927979 70.36180202 -24.27262531 70.84788785 -29 70 C-34.6223565 67.6796624 -38.08120673 64.37057962 -41 59 C-43.08099485 52.75701544 -42.99928252 46.13170929 -40.0625 40.1875 C-36.55828301 34.59480985 -31.19931906 31.06643969 -25 29 C-23.31454276 28.90712229 -21.625507 28.87002796 -19.9375 28.875 C-19.05964844 28.87242187 -18.18179687 28.86984375 -17.27734375 28.8671875 C-15 29 -15 29 -13 30 C-13.08064635 26.7073118 -13.19350279 23.41650779 -13.3125 20.125 C-13.33505859 19.18785156 -13.35761719 18.25070312 -13.38085938 17.28515625 C-13.4340332 15.94130859 -13.4340332 15.94130859 -13.48828125 14.5703125 C-13.51446533 13.74289551 -13.54064941 12.91547852 -13.56762695 12.06298828 C-13.83096637 9.60672068 -13.83096637 9.60672068 -17 8 C-16.67 7.01 -16.34 6.02 -16 5 C-13.1640625 3.61328125 -13.1640625 3.61328125 -9.625 2.3125 C-8.46226562 1.87550781 -7.29953125 1.43851562 -6.1015625 0.98828125 C-3 0 -3 0 0 0 Z " fill="#373737" transform="translate(436,259)"/>
<path d="M0 0 C0.66 0.33 1.32 0.66 2 1 C2 2.65 2 4.3 2 6 C3.134375 5.34 4.26875 4.68 5.4375 4 C10.03891678 1.71150776 13.93143007 1.23688817 19 2 C24.27011062 3.82426906 26.83751204 6.57251686 30 11 C32.21159925 17.63479775 31.89762198 25.82170411 29.10546875 32.21875 C25.65847534 37.77291605 20.11650869 41.06310558 14 43 C10.32371804 43.50741645 6.71001436 43.77098677 3 44 C3 50.27 3 56.54 3 63 C4.98 63 6.96 63 9 63 C9 64.32 9 65.64 9 67 C0.75 67 -7.5 67 -16 67 C-16 65.68 -16 64.36 -16 63 C-14.35 63 -12.7 63 -11 63 C-10.92405187 55.79181655 -10.87144322 48.58373595 -10.83520508 41.37524414 C-10.82010119 38.92207992 -10.79961679 36.46894276 -10.77368164 34.01586914 C-10.73736943 30.49358445 -10.72028964 26.97165619 -10.70703125 23.44921875 C-10.69154739 22.34913986 -10.67606354 21.24906097 -10.66011047 20.11564636 C-10.65988388 19.09481461 -10.65965729 18.07398285 -10.65942383 17.0222168 C-10.64943108 15.67319527 -10.64943108 15.67319527 -10.63923645 14.29692078 C-11.07466443 11.52462413 -11.99578475 10.86176166 -14 9 C-14 8.01 -14 7.02 -14 6 C-11.71220962 4.96959833 -9.42048864 3.95047982 -7.125 2.9375 C-6.47402344 2.64294922 -5.82304687 2.34839844 -5.15234375 2.04492188 C-3.45989459 1.30338487 -1.73131425 0.64560999 0 0 Z " fill="#343434" transform="translate(181,286)"/>
<path d="M0 0 C4.41297106 2.62410649 8.57709776 5.3943702 12.62109375 8.55859375 C13.65234375 9.30109375 14.68359375 10.04359375 15.74609375 10.80859375 C24.18583712 18.88139176 28.26695112 27.61804268 31.62109375 38.55859375 C31.95109375 39.54859375 32.28109375 40.53859375 32.62109375 41.55859375 C32.69079427 43.95350361 32.70557378 46.35027066 32.68359375 48.74609375 C32.67457031 50.01839844 32.66554688 51.29070312 32.65625 52.6015625 C32.64464844 53.57738281 32.63304687 54.55320313 32.62109375 55.55859375 C29.65109375 55.55859375 26.68109375 55.55859375 23.62109375 55.55859375 C23.55792969 54.49382812 23.49476563 53.4290625 23.4296875 52.33203125 C22.3681701 38.59278124 18.36910658 25.97368373 7.62109375 16.55859375 C-1.95530826 8.8689332 -14.20972351 4.61032902 -26.5703125 5.1796875 C-39.38088648 6.90795687 -51.53527936 11.8274233 -59.75 22.16015625 C-67.18449763 33.10687459 -69.61009026 42.5985527 -70.37890625 55.55859375 C-73.34890625 55.55859375 -76.31890625 55.55859375 -79.37890625 55.55859375 C-80.05563215 39.79338671 -76.26753509 26.67566276 -66.12890625 14.24609375 C-50.02396076 -2.75556363 -21.84212362 -10.46169557 0 0 Z " fill="#BBA555" transform="translate(273.37890625,174.44140625)"/>
<path d="M0 0 C4.94960204 2.76205471 7.71986286 6.7997128 9.75 11.9765625 C11.28967373 18.57516421 10.52996306 23.77510645 7.75 29.9765625 C3.98963282 34.62754296 -0.3579153 37.77907047 -6.25 38.9765625 C-13.6642269 39.68879532 -19.91896435 39.11657575 -26.25 34.9765625 C-30.33832999 31.32805285 -32.88836439 27.18677398 -33.50390625 21.72265625 C-33.7939166 15.59501815 -32.86569316 10.99151772 -29.25 5.9765625 C-21.03924603 -2.23419147 -10.71351183 -4.62236196 0 0 Z " fill="#353535" transform="translate(283.25,290.0234375)"/>
<path d="M0 0 C0.495 7.92 0.495 7.92 1 16 C-0.32 16 -1.64 16 -3 16 C-3.20753906 15.46890625 -3.41507813 14.9378125 -3.62890625 14.390625 C-5.51451189 10.06714429 -7.29782038 6.77984466 -11.7421875 4.625 C-17.16884945 3.12280984 -23.7999864 2.65103396 -29.06640625 4.87109375 C-30.8200284 6.02716344 -30.8200284 6.02716344 -33 8 C-33.99 8.33 -34.98 8.66 -36 9 C-37.08742694 11.21433941 -37.08742694 11.21433941 -38 14 C-38.50660156 15.010625 -39.01320313 16.02125 -39.53515625 17.0625 C-41.49289801 21.6162479 -41.47811369 25.97920469 -41.4375 30.875 C-41.45748047 31.72191406 -41.47746094 32.56882812 -41.49804688 33.44140625 C-41.4911896 42.39701245 -38.31918334 49.68081666 -32 56 C-26.55784473 59.98206483 -20.46854547 59.62368896 -14 59 C-6.97289948 56.91789614 -3.86658784 50.79988177 0 45 C0.99 45.33 1.98 45.66 3 46 C2.34739803 58.84950774 2.34739803 58.84950774 -1 62 C-10.70872909 66.53938669 -24.2923229 66.58608178 -34.5625 63.8125 C-44.40868953 60.20779332 -51.94495695 53.97485516 -56.4375 44.375 C-59.8491636 34.70367535 -58.96960194 24.87197775 -54.60546875 15.69140625 C-42.76753831 -4.15368882 -20.08414284 -3.65166233 0 0 Z " fill="#373737" transform="translate(76,265)"/>
<path d="M0 0 C9.57 0 19.14 0 29 0 C28.67 1.32 28.34 2.64 28 4 C26.68 4.33 25.36 4.66 24 5 C26.36369494 13.57708886 29.49867789 21.83140432 32.6875 30.125 C33.20410221 31.47643786 33.72038055 32.82799958 34.23632812 34.1796875 C35.48716096 37.45455893 36.742347 40.7277407 38 44 C40.73469596 41.26530404 41.69441481 38.02506907 43.0390625 34.47265625 C43.32478119 33.72793564 43.61049988 32.98321503 43.90487671 32.21592712 C44.50758209 30.64080799 45.10758138 29.06465113 45.70507812 27.48754883 C46.62115274 25.07264193 47.54821404 22.66216427 48.4765625 20.25195312 C49.06056103 18.72160785 49.64391606 17.19101682 50.2265625 15.66015625 C50.64369003 14.57723045 50.64369003 14.57723045 51.06924438 13.47242737 C52.18658274 10.50524966 53 8.19868302 53 5 C50.525 4.01 50.525 4.01 48 3 C48 2.01 48 1.02 48 0 C55.26 0 62.52 0 70 0 C69.67 1.32 69.34 2.64 69 4 C67.63875 4.37125 67.63875 4.37125 66.25 4.75 C60.57489115 6.93273417 58.43678767 12.83460887 56.04296875 18.19018555 C55.41727367 19.66933593 54.79903994 21.15166013 54.1875 22.63671875 C53.68319458 23.83866631 53.68319458 23.83866631 53.16870117 25.06489563 C52.10591822 27.60308573 51.05303356 30.14525223 50 32.6875 C49.29486983 34.37199566 48.58914492 36.05624249 47.8828125 37.74023438 C47.19232124 39.39306751 46.50221196 41.04606027 45.8125 42.69921875 C45.47718262 43.50036102 45.14186523 44.3015033 44.79638672 45.12692261 C43.29388455 48.74714193 41.84386942 52.3639739 40.5625 56.06884766 C39.94375 57.83881104 39.94375 57.83881104 39.3125 59.64453125 C38.97863281 60.66522705 38.64476562 61.68592285 38.30078125 62.73754883 C37 65 37 65 34.35546875 65.8347168 C33.57816406 65.88926025 32.80085938 65.94380371 32 66 C29.19840162 61.72507427 27.4515021 57.30073662 25.671875 52.54296875 C25.35978088 51.72234451 25.04768677 50.90172028 24.72613525 50.05622864 C23.7295539 47.43501238 22.73911901 44.81154045 21.75 42.1875 C19.51159306 36.25398945 17.2564078 30.32814269 14.94458008 24.42279053 C14.31948481 22.81945912 13.70136555 21.21338884 13.09057617 19.60455322 C12.23618789 17.36755927 11.34969067 15.1461477 10.453125 12.92578125 C10.20786072 12.26563522 9.96259644 11.6054892 9.7098999 10.92533875 C8.20282915 7.30827905 6.80812936 5.59234848 3.28417969 4.06713867 C2.20040039 3.71498291 1.11662109 3.36282715 0 3 C0 2.01 0 1.02 0 0 Z " fill="#363636" transform="translate(294,264)"/>
<path d="M0 0 C3.02400866 2.56582553 4.86406816 4.45542414 5.47900391 8.46728516 C5.50873291 9.98781494 5.50873291 9.98781494 5.5390625 11.5390625 C5.57 12.64507812 5.6009375 13.75109375 5.6328125 14.890625 C5.65085937 16.04046875 5.66890625 17.1903125 5.6875 18.375 C5.73836732 20.65894245 5.79286787 22.9428078 5.8515625 25.2265625 C5.86912598 26.23799316 5.88668945 27.24942383 5.90478516 28.29150391 C5.90273645 30.7546692 5.90273645 30.7546692 7.0625 32.75 C9.3725 32.75 11.6825 32.75 14.0625 32.75 C13.06699135 35.3745228 12.12286546 36.70028727 9.9375 38.5 C6.20895905 40.12110476 3.07395605 40.4049316 -0.9375 39.75 C-1.80375 39.21375 -2.67 38.6775 -3.5625 38.125 C-5.96458635 36.37179631 -5.96458635 36.37179631 -9.125 37.5 C-10.74320795 38.21920353 -12.35361852 38.95805926 -13.9375 39.75 C-18.90817782 40.1251455 -21.98901502 39.90878799 -25.9375 36.75 C-28.26152951 33.54062591 -28.41320691 30.63493979 -27.9375 26.75 C-25.35640931 21.82246322 -21.47893704 20.36485391 -16.48828125 18.53125 C-13.27598539 17.54739215 -10.28046188 17.04069234 -6.9375 16.75 C-7.05148665 15.12419034 -7.17905659 13.49932843 -7.3125 11.875 C-7.38210938 10.97007812 -7.45171875 10.06515625 -7.5234375 9.1328125 C-7.73318132 6.57058097 -7.73318132 6.57058097 -9.9375 4.75 C-12.45499828 4.60231087 -12.45499828 4.60231087 -14.9375 5.75 C-16.60416667 8.66666667 -16.60416667 8.66666667 -17.9375 11.75 C-21.5816774 14.1794516 -23.64991272 13.91179575 -27.9375 13.75 C-27.4256973 9.27172637 -26.16745619 6.90117677 -22.9375 3.75 C-15.76952371 -1.03301891 -8.24269717 -3.50753071 0 0 Z " fill="#373737" transform="translate(473.9375,289.25)"/>
<path d="M0 0 C8.25 0 16.5 0 25 0 C24.67 1.32 24.34 2.64 24 4 C22.68 4 21.36 4 20 4 C20.18175781 4.5347998 20.36351562 5.06959961 20.55078125 5.62060547 C21.37031044 8.03769125 22.18520733 10.45631366 23 12.875 C23.28617188 13.71675781 23.57234375 14.55851562 23.8671875 15.42578125 C24.13789063 16.23144531 24.40859375 17.03710938 24.6875 17.8671875 C24.93886719 18.61081543 25.19023437 19.35444336 25.44921875 20.12060547 C26 22 26 22 26 24 C26.66 24 27.32 24 28 24 C28.10183594 23.33613281 28.20367187 22.67226563 28.30859375 21.98828125 C29.18318535 18.20826673 30.58605015 14.76729141 32.0625 11.1875 C32.34416016 10.49462891 32.62582031 9.80175781 32.91601562 9.08789062 C33.60674973 7.39032376 34.30283728 5.69493688 35 4 C33.68 4 32.36 4 31 4 C31 2.68 31 1.36 31 0 C36.94 0 42.88 0 49 0 C48.67 1.32 48.34 2.64 48 4 C47.0716333 4.2688501 46.1432666 4.5377002 45.18676758 4.81469727 C40.89224083 6.41202565 39.84097934 9.02248653 38.01171875 12.96484375 C37.66693985 13.66608871 37.32216095 14.36733368 36.9669342 15.08982849 C35.8547034 17.36366166 34.77135742 19.65002685 33.6875 21.9375 C32.9299239 23.49586197 32.17047947 25.05331704 31.40917969 26.60986328 C28.22145503 33.15247847 25.10895536 39.72842519 22.06640625 46.33984375 C21.66268799 47.21326416 21.25896973 48.08668457 20.84301758 48.98657227 C20.13966125 50.52352446 19.44955593 52.06664651 18.77612305 53.61694336 C16.85830436 57.8667887 14.97307492 60.50659641 11 63 C7.8125 63.375 7.8125 63.375 5 63 C3 61 3 61 2.75 57.5 C3 54 3 54 5 52 C6.258125 51.95875 7.51625 51.9175 8.8125 51.875 C11.5505864 51.60069262 12.66401915 51.33437713 14.63671875 49.37109375 C17.49104166 45.06098437 18.31959331 42.22066897 18 37 C16.67096693 32.54732008 14.93287166 28.25941597 13.20263672 23.94970703 C12.37771295 21.88180079 11.58485996 19.80339834 10.79296875 17.72265625 C10.26753961 16.39507397 9.74025634 15.06822372 9.2109375 13.7421875 C8.73962402 12.5444873 8.26831055 11.34678711 7.78271484 10.11279297 C5.70554452 6.48585217 3.48527299 5.19888931 0 3 C0 2.01 0 1.02 0 0 Z " fill="#383838" transform="translate(117,289)"/>
<path d="M0 0 C2.9742836 1.70636191 5.19465431 3.03172219 6.625 6.25 C6.90559653 9.00740056 6.80808847 11.45790087 6.625 14.25 C5.625 15.25 5.625 15.25 3.40014648 15.36352539 C2.44180908 15.35828857 1.48347168 15.35305176 0.49609375 15.34765625 C-1.05561523 15.34282227 -1.05561523 15.34282227 -2.63867188 15.33789062 C-3.72728516 15.32951172 -4.81589844 15.32113281 -5.9375 15.3125 C-7.5762207 15.30573242 -7.5762207 15.30573242 -9.24804688 15.29882812 C-11.95708495 15.28699826 -14.66601599 15.27051543 -17.375 15.25 C-16.92375263 16.86527758 -16.46373486 18.47810685 -16 20.08984375 C-15.74476563 20.98823975 -15.48953125 21.88663574 -15.2265625 22.81225586 C-14.18482105 25.79441996 -12.9380095 27.40783693 -10.375 29.25 C-6.76927296 30.45190901 -4.1647565 30.57670315 -0.375 30.25 C1.3324998 28.96937515 3.00763741 27.6427289 4.625 26.25 C5.615 26.58 6.605 26.91 7.625 27.25 C6.06151484 32.72219808 2.53254234 35.53299454 -2.2734375 38.37109375 C-6.79908915 40.26379193 -11.98649053 39.97855748 -16.62890625 38.5625 C-21.46595745 36.35966833 -24.33593308 33.57836803 -27.375 29.25 C-29.37454039 23.25137882 -29.62968158 15.6600267 -27.43359375 9.69140625 C-21.43057125 -0.26344924 -10.93762256 -5.11630963 0 0 Z " fill="#353535" transform="translate(382.375,289.75)"/>
<path d="M0 0 C0.33 1.65 0.66 3.3 1 5 C1.886875 4.34 2.77375 3.68 3.6875 3 C6.98452981 1.00934049 8.27764369 0.29577043 12 1 C13.8125 2.125 13.8125 2.125 15 4 C15.39769128 7.18153026 15.55198782 9.12844028 13.8125 11.875 C11.328806 13.41660317 9.87933136 13.42136557 7 13 C4.8125 11.5 4.8125 11.5 3 10 C2.34 10 1.68 10 1 10 C1 18.58 1 27.16 1 36 C2.98 36.66 4.96 37.32 7 38 C7 38.99 7 39.98 7 41 C-1.25 41 -9.5 41 -18 41 C-18 39.68 -18 38.36 -18 37 C-16.02 36.505 -16.02 36.505 -14 36 C-14 27.42 -14 18.84 -14 10 C-14.66 9.67 -15.32 9.34 -16 9 C-16 7.68 -16 6.36 -16 5 C-13.89828133 4.1605118 -11.79353375 3.32860344 -9.6875 2.5 C-8.51574219 2.0359375 -7.34398438 1.571875 -6.13671875 1.09375 C-3 0 -3 0 0 0 Z " fill="#383838" transform="translate(101,287)"/>
<path d="M0 0 C0.99 0 1.98 0 3 0 C3 3.3 3 6.6 3 10 C6.63 10 10.26 10 14 10 C13.67 11.65 13.34 13.3 13 15 C9.7 15 6.4 15 3 15 C3.10950024 18.9589232 3.24021668 22.91686326 3.375 26.875 C3.4059375 28.00292969 3.436875 29.13085938 3.46875 30.29296875 C3.50742188 31.36933594 3.54609375 32.44570313 3.5859375 33.5546875 C3.63306885 35.04718018 3.63306885 35.04718018 3.68115234 36.56982422 C3.77247083 39.17854517 3.77247083 39.17854517 6 41 C8.68839385 41.26991906 11.29141936 41.08737357 14 41 C14 42.32 14 43.64 14 45 C8.05282077 48.52425436 2.96389664 50.41192406 -4 49 C-7.34625024 46.47323961 -8.67977847 44.96066458 -10 41 C-10.08291953 39.0079697 -10.10738177 37.01326287 -10.09765625 35.01953125 C-10.09443359 33.85615234 -10.09121094 32.69277344 -10.08789062 31.49414062 C-10.07951172 30.27919922 -10.07113281 29.06425781 -10.0625 27.8125 C-10.05798828 26.58595703 -10.05347656 25.35941406 -10.04882812 24.09570312 C-10.03703065 21.06375332 -10.02056921 18.03190094 -10 15 C-11.65 15 -13.3 15 -15 15 C-14.765625 13.1484375 -14.765625 13.1484375 -14 11 C-12.109375 9.7265625 -12.109375 9.7265625 -9.75 8.625 C-6.52196933 6.98024152 -4.33502456 5.56866699 -2.125 2.6875 C-1.42375 1.800625 -0.7225 0.91375 0 0 Z " fill="#373737" transform="translate(233,280)"/>
<path d="M0 0 C3 -0.375 3 -0.375 6 0 C8.07141646 3.10712469 8.25344525 3.80553482 8.2746582 7.33203125 C8.28419022 8.20303467 8.29372223 9.07403809 8.30354309 9.97143555 C8.30263168 10.90898682 8.30172028 11.84653809 8.30078125 12.8125 C8.30506638 13.77776611 8.3093515 14.74303223 8.31376648 15.73754883 C8.31950973 17.77847509 8.32001008 19.81942183 8.31567383 21.86035156 C8.31251215 24.98798388 8.3359792 28.11467205 8.36132812 31.2421875 C8.36360089 33.22395714 8.36430472 35.20572932 8.36328125 37.1875 C8.372491 38.12505127 8.38170074 39.06260254 8.39118958 40.02856445 C8.38496078 40.89956787 8.37873199 41.77057129 8.37231445 42.66796875 C8.37294388 43.43391357 8.3735733 44.1998584 8.3742218 44.98901367 C7.89832603 47.54637372 7.0684894 48.4614411 5 50 C1.65807308 49.75546876 0.39456443 49.39456443 -2 47 C-2.25396729 45.10926819 -2.25396729 45.10926819 -2.25878906 42.78149414 C-2.26509338 41.91041519 -2.27139771 41.03933624 -2.27789307 40.14186096 C-2.2738446 39.19914841 -2.26979614 38.25643585 -2.265625 37.28515625 C-2.26753845 36.31847519 -2.2694519 35.35179413 -2.27142334 34.3558197 C-2.27278592 32.30890646 -2.26908443 30.26198459 -2.26074219 28.21508789 C-2.25005534 25.07874134 -2.26062912 21.94296913 -2.2734375 18.80664062 C-2.27211569 16.82031123 -2.26955285 14.8339822 -2.265625 12.84765625 C-2.26967346 11.90696793 -2.27372192 10.9662796 -2.27789307 9.99708557 C-2.27158875 9.12285446 -2.26528442 8.24862335 -2.25878906 7.34790039 C-2.25719788 6.57893936 -2.25560669 5.80997833 -2.25396729 5.01771545 C-2 3 -2 3 0 0 Z " fill="#BDA759" transform="translate(247,105)"/>
<path d="M0 0 C3.58875 -0.0928125 3.58875 -0.0928125 7.25 -0.1875 C8.37003418 -0.22846802 8.37003418 -0.22846802 9.51269531 -0.27026367 C12.60149805 -0.30889448 14.72364101 -0.14870746 17.4609375 1.32421875 C19 3 19 3 19.375 6 C19 9 19 9 17 12 C17.7425 12.5259375 17.7425 12.5259375 18.5 13.0625 C20.81346701 16.05072823 20.4568702 18.34503841 20 22 C17.47248944 24.85406231 15.95639964 25.00328316 12.109375 25.29296875 C10.65592448 25.27594471 9.20270153 25.23716376 7.75 25.1875 C5.1925 25.125625 2.635 25.06375 0 25 C0 16.75 0 8.5 0 0 Z " fill="#3C3C3C" transform="translate(66,359)"/>
<path d="M0 0 C3.40333883 0.40270387 5.15843732 1.55374556 8.01953125 3.4453125 C12.5472629 6.39526121 17.14158298 9.15464034 21.859375 11.79296875 C22.94371826 12.40446777 24.02806152 13.0159668 25.14526367 13.64599609 C27.33781226 14.87860763 29.53716768 16.09919542 31.7434082 17.30712891 C32.75749756 17.88253418 33.77158691 18.45793945 34.81640625 19.05078125 C35.73389648 19.56020264 36.65138672 20.06962402 37.59667969 20.59448242 C39.70703125 22.3203125 39.70703125 22.3203125 40.57910156 24.9074707 C40.70703125 27.3203125 40.70703125 27.3203125 39.64453125 29.1953125 C36.69372238 30.90868539 34.98645731 30.14587567 31.70703125 29.3203125 C28.98915725 28.02213575 26.45399437 26.46683149 23.89453125 24.8828125 C22.39737398 23.97746996 20.89997041 23.07253461 19.40234375 22.16796875 C18.63438477 21.7002002 17.86642578 21.23243164 17.07519531 20.75048828 C14.69215377 19.31132773 12.29359868 17.90278917 9.88671875 16.50390625 C9.11303955 16.05394287 8.33936035 15.60397949 7.54223633 15.14038086 C6.05064067 14.27400878 4.55831342 13.40889477 3.06518555 12.54516602 C-2.07033386 9.54294739 -2.07033386 9.54294739 -4.29296875 7.3203125 C-4.54296875 4.8203125 -4.54296875 4.8203125 -4.29296875 2.3203125 C-2.29296875 0.3203125 -2.29296875 0.3203125 0 0 Z " fill="#BCA657" transform="translate(148.29296875,162.6796875)"/>
<path d="M0 0 C2.5625 0.1875 2.5625 0.1875 4.5625 2.1875 C4.94946289 4.6027832 4.94946289 4.6027832 4.5625 7.1875 C2.82983398 8.94995117 2.82983398 8.94995117 0.37109375 10.54296875 C-1.00006592 11.43508057 -1.00006592 11.43508057 -2.39892578 12.34521484 C-7.65297235 15.53073914 -12.98703652 18.54756092 -18.375 21.5 C-20.59298541 22.72428718 -22.81045803 23.94950393 -25.02734375 25.17578125 C-25.99534912 25.70727783 -26.96335449 26.23877441 -27.96069336 26.78637695 C-29.83113108 27.84447869 -31.64944027 28.99546018 -33.4375 30.1875 C-36.75990324 29.8633631 -38.04526303 29.57973697 -40.4375 27.1875 C-40.40209961 24.78491211 -40.40209961 24.78491211 -39.4375 22.1875 C-37.09594727 20.33813477 -37.09594727 20.33813477 -34.00390625 18.62890625 C-32.3168457 17.67854492 -32.3168457 17.67854492 -30.59570312 16.70898438 C-29.39744001 16.05543082 -28.19887046 15.40243878 -27 14.75 C-24.68841693 13.46032551 -22.37721369 12.16996997 -20.06640625 10.87890625 C-18.9489502 10.26031738 -17.83149414 9.64172852 -16.68017578 9.00439453 C-0.70674183 0.05436476 -0.70674183 0.05436476 0 0 Z " fill="#BCA657" transform="translate(351.4375,162.8125)"/>
<path d="M0 0 C2.375 0.75 2.375 0.75 3.375 1.75 C2.99571394 7.04811367 1.62970879 10.70364457 -1.01171875 15.27734375 C-1.35121048 15.86995499 -1.69070221 16.46256622 -2.04048157 17.07313538 C-2.75723287 18.31902161 -3.47942873 19.56179003 -4.20678711 20.80151367 C-5.3036638 22.67242833 -6.38259393 24.55278664 -7.45898438 26.43554688 C-11.15229571 32.84465002 -15.01381064 38.94788929 -19.625 44.75 C-24.5 43.875 -24.5 43.875 -25.625 42.75 C-25.50094334 36.91933685 -23.3836529 33.27941244 -20.296875 28.4140625 C-18.64591706 25.78333046 -17.15454921 23.11191439 -15.6875 20.375 C-13.48456038 16.30535891 -11.23975067 12.26442868 -8.9375 8.25 C-8.09638672 6.78046875 -8.09638672 6.78046875 -7.23828125 5.28125 C-3.6507032 -0.34768602 -3.6507032 -0.34768602 0 0 Z " fill="#BCA656" transform="translate(309.625,120.25)"/>
<path d="M0 0 C2.375 0.0625 2.375 0.0625 5 1 C8.37752659 4.7312306 10.784906 8.92055172 13.1875 13.3125 C13.97081775 14.73206696 14.75468907 16.15132858 15.5390625 17.5703125 C15.9402832 18.29766602 16.34150391 19.02501953 16.75488281 19.77441406 C18.0052458 22.00937661 19.28942821 24.22121846 20.5859375 26.4296875 C21.20819214 27.50029419 21.20819214 27.50029419 21.84301758 28.5925293 C22.63944184 29.96072081 23.44365292 31.32441736 24.2565918 32.68286133 C26.29771746 36.22114742 27.70505156 38.88101457 27 43 C26.34 43.66 25.68 44.32 25 45 C22.06286239 44.83072435 20.5275479 44.55480721 18.47387695 42.39501953 C17.83131958 41.33710205 17.83131958 41.33710205 17.17578125 40.2578125 C16.67256348 39.44344727 16.1693457 38.62908203 15.65087891 37.79003906 C15.10608887 36.86932617 14.56129883 35.94861328 14 35 C13.38431152 33.98905273 12.76862305 32.97810547 12.13427734 31.93652344 C10.12017597 28.60052737 8.15028335 25.24141281 6.1875 21.875 C5.84662354 21.30313965 5.50574707 20.7312793 5.15454102 20.14208984 C4.14779021 18.4529299 3.15768637 16.75388365 2.16796875 15.0546875 C1.58297607 14.05937012 0.9979834 13.06405273 0.39526367 12.03857422 C-1.17754697 8.61334216 -1.79510403 5.75821609 -2 2 C-1.34 1.34 -0.68 0.68 0 0 Z " fill="#BCA656" transform="translate(189,120)"/>
<path d="M0 0 C3.25 -0.375 3.25 -0.375 7 0 C12.8904118 6.97548766 12.58025909 14.25677401 12 23 C11.21728384 26.00121226 10.24753203 28.75246797 8 31 C4.625 31.3125 4.625 31.3125 1 31 C-2.77881061 27.61210083 -3.85208104 22.49810942 -4.3359375 17.59765625 C-4.4142105 10.51394948 -4.35898412 5.72116666 0 0 Z " fill="#F8F8F8" transform="translate(268,293)"/>
<path d="M0 0 C4.27790162 0.43504084 5.72537763 1.32824556 8.6875 4.375 C11.94281979 9.45147772 11.16942379 15.58472162 10.6875 21.375 C9.35963792 24.93608467 8.33236434 26.73013566 5.6875 29.375 C2.3125 29.8125 2.3125 29.8125 -1.3125 29.375 C-3.97525646 27.16547868 -5.16848872 25.38479578 -5.66064453 21.93383789 C-5.77895718 19.00803278 -5.7593098 16.11469404 -5.6875 13.1875 C-5.68621094 12.17751953 -5.68492187 11.16753906 -5.68359375 10.12695312 C-5.56925496 0.63048169 -5.56925496 0.63048169 0 0 Z " fill="#FAFAFA" transform="translate(188.3125,294.625)"/>
<path d="M0 0 C1.40166664 -0.00956978 1.40166664 -0.00956978 2.83164978 -0.01933289 C3.84828201 -0.02044571 4.86491425 -0.02155853 5.91235352 -0.02270508 C6.94940933 -0.02603348 7.98646515 -0.02936188 9.0549469 -0.03279114 C11.25326085 -0.03786493 13.45158254 -0.04019932 15.64990234 -0.04003906 C19.02332177 -0.04222471 22.39641394 -0.06037347 25.76977539 -0.0793457 C27.90063364 -0.08227962 30.03149345 -0.08426443 32.16235352 -0.08520508 C33.17696152 -0.09239059 34.19156952 -0.09957611 35.23692322 -0.10697937 C36.17451981 -0.10390274 37.11211639 -0.10082611 38.078125 -0.09765625 C38.90561752 -0.09908127 39.73311005 -0.10050629 40.5856781 -0.10197449 C42.60375977 0.14526367 42.60375977 0.14526367 44.60375977 2.14526367 C44.79125977 4.70776367 44.79125977 4.70776367 44.60375977 7.14526367 C43.00324312 8.74578031 41.31529854 8.27257839 39.09985352 8.2746582 C37.66331421 8.27938644 37.66331421 8.27938644 36.19775391 8.28421021 C35.15611084 8.28218597 34.11446777 8.28016174 33.04125977 8.27807617 C31.97963623 8.2790329 30.9180127 8.27998962 29.82421875 8.28097534 C27.57462505 8.28165731 25.3250294 8.27980186 23.07543945 8.27563477 C19.61868905 8.27028677 16.16206859 8.27557922 12.70532227 8.28198242 C10.52563448 8.28132164 8.34594677 8.28004049 6.16625977 8.27807617 C5.1246167 8.2801004 4.08297363 8.28212463 3.00976562 8.28421021 C2.05207275 8.28105804 1.09437988 8.27790588 0.10766602 8.2746582 C-0.73981201 8.27386261 -1.58729004 8.27306702 -2.46044922 8.27224731 C-4.39624023 8.14526367 -4.39624023 8.14526367 -5.39624023 7.14526367 C-5.52124023 4.14526367 -5.52124023 4.14526367 -5.39624023 1.14526367 C-3.81265419 -0.43832237 -2.19633663 0.01012704 0 0 Z " fill="#BAA352" transform="translate(327.396240234375,221.854736328125)"/>
<path d="M0 0 C0.80671143 0.00142502 1.61342285 0.00285004 2.44458008 0.00431824 C3.35892822 0.00124161 4.27327637 -0.00183502 5.21533203 -0.00500488 C6.2049292 0.00218063 7.19452637 0.00936615 8.21411133 0.01676941 C9.73427856 0.01745674 9.73427856 0.01745674 11.28515625 0.01815796 C13.43043181 0.02118247 15.57570514 0.02907466 17.72094727 0.04142761 C21.01301821 0.05966286 24.30480771 0.06193748 27.59692383 0.06169128 C29.67765544 0.06660717 31.75838513 0.0724358 33.83911133 0.07926941 C34.8287085 0.08038223 35.81830566 0.08149506 36.83789062 0.0826416 C37.75223877 0.08902145 38.66658691 0.09540131 39.60864258 0.10197449 C40.81870972 0.10769218 40.81870972 0.10769218 42.05322266 0.11352539 C44.02661133 0.24723816 44.02661133 0.24723816 46.02661133 1.24723816 C46.06915489 3.24678562 46.06741916 5.24765452 46.02661133 7.24723816 C44.42609469 8.8477548 42.7381501 8.37455288 40.52270508 8.37663269 C39.08616577 8.38136093 39.08616577 8.38136093 37.62060547 8.38618469 C36.5789624 8.38416046 35.53731934 8.38213623 34.46411133 8.38005066 C33.40248779 8.38100739 32.34086426 8.38196411 31.24707031 8.38294983 C28.99747661 8.3836318 26.74788096 8.38177635 24.49829102 8.37760925 C21.04154061 8.37226126 17.58492016 8.3775537 14.12817383 8.38395691 C11.94848604 8.38329613 9.76879833 8.38201497 7.58911133 8.38005066 C6.54746826 8.38207489 5.5058252 8.38409912 4.43261719 8.38618469 C3.47492432 8.38303253 2.51723145 8.37988037 1.53051758 8.37663269 C0.68303955 8.3758371 -0.16443848 8.3750415 -1.03759766 8.3742218 C-2.97338867 8.24723816 -2.97338867 8.24723816 -3.97338867 7.24723816 C-4.16088867 4.80973816 -4.16088867 4.80973816 -3.97338867 2.24723816 C-1.97338867 0.24723816 -1.97338867 0.24723816 0 0 Z " fill="#BAA352" transform="translate(131.973388671875,221.7527618408203)"/>
<path d="M0 0 C3.625 0.25 3.625 0.25 5.33105469 1.40771484 C7.14509826 3.99050217 6.9817154 5.83999869 6.953125 8.9765625 C6.94796875 10.0903125 6.9428125 11.2040625 6.9375 12.3515625 C6.916875 13.51429688 6.89625 14.67703125 6.875 15.875 C6.86984375 17.04546875 6.8646875 18.2159375 6.859375 19.421875 C6.77887149 28.09612851 6.77887149 28.09612851 5.625 29.25 C-1.47332134 29.95983213 -1.47332134 29.95983213 -5.3125 26.9375 C-9.70249826 21.21719924 -8.97765536 14.16467734 -8.375 7.25 C-6.69151188 2.90353977 -4.67110234 0.34600758 0 0 Z " fill="#FCFCFC" transform="translate(416.375,292.75)"/>
<path d="M0 0 C0.99 0 1.98 0 3 0 C3 8.58 3 17.16 3 26 C2.01 26 1.02 26 0 26 C-0.33 25.34 -0.66 24.68 -1 24 C-1.99 24.66 -2.98 25.32 -4 26 C-7.375 26.5 -7.375 26.5 -11 26 C-14.69374497 22.77779694 -15.77969084 21.25576218 -16.625 16.4375 C-15.82227491 12.02251199 -14.65829624 10.56859098 -11 8 C-6.55856266 7.46396446 -4.75047482 7.49968346 -1 10 C-0.67 6.7 -0.34 3.4 0 0 Z " fill="#525252" transform="translate(432,358)"/>
<path d="M0 0 C0.99 0 1.98 0 3 0 C3.33 3.3 3.66 6.6 4 10 C4.99 9.34 5.98 8.68 7 8 C11.15407036 7.35381128 12.74454182 7.84388667 16.375 10.0625 C19 13 19 13 19.625 16.5 C18.91563321 20.47245401 17.82768293 22.17231707 15 25 C12.22899606 26.38550197 10.0665294 26.1877467 7 26 C6.01 25.34 5.02 24.68 4 24 C3.67 24.66 3.34 25.32 3 26 C2.01 26 1.02 26 0 26 C0 17.42 0 8.84 0 0 Z " fill="#4C4C4C" transform="translate(317,358)"/>
<path d="M0 0 C0.66 0 1.32 0 2 0 C2 8.58 2 17.16 2 26 C1.34 26 0.68 26 0 26 C-0.33 25.34 -0.66 24.68 -1 24 C-1.99 24.66 -2.98 25.32 -4 26 C-8.32351988 26.56045628 -10.29704773 26.4786058 -13.9375 24 C-16.22884945 20.66712807 -16.76573062 18.90166762 -16.47265625 14.94140625 C-15.58944986 11.31369073 -14.10340188 9.9633767 -11 8 C-7.88438446 7.84659957 -5.01622161 8.21478528 -2 9 C-1.67 9.33 -1.34 9.66 -1 10 C-0.67 6.7 -0.34 3.4 0 0 Z " fill="#F1F1F1" transform="translate(231,401)"/>
<path d="M0 0 C3.02921527 2.58591547 3.84825878 4.08955268 4.5 8 C3.84825878 11.91044732 3.02921527 13.41408453 0 16 C-3.05415148 16.98006353 -5.80529137 17.30751206 -9 17 C-11.92143417 15.23496686 -13.47923817 14.04152365 -15 11 C-15.43023798 7.12785818 -15.31669086 5.47503629 -13.125 2.1875 C-9.13124954 -1.9237137 -5.31917811 -1.36994818 0 0 Z " fill="#F6F6F6" transform="translate(123,367)"/>
<path d="M0 0 C0.66 0.66 1.32 1.32 2 2 C1.89843125 6.90069231 -0.931024 9.56718273 -4.25 12.8125 C-4.72824219 13.31458984 -5.20648438 13.81667969 -5.69921875 14.33398438 C-7.98922788 16.61468453 -9.50547297 17.91875627 -12.734375 18.44921875 C-15 18 -15 18 -17 16 C-16.82325063 10.88840808 -15.22529492 8.62759699 -11.5625 5.1875 C-10.75941406 4.41792969 -9.95632813 3.64835938 -9.12890625 2.85546875 C-5.97891988 0.11006779 -4.14172571 -0.31062943 0 0 Z " fill="#BDA85A" transform="translate(316,159)"/>
<path d="M0 0 C4.92222362 0.76590616 7.77923008 4.22230179 11.1796875 7.60546875 C13.29800094 10.53746911 13.85074242 12.52789223 14 16.125 C12 18.125 12 18.125 9.7734375 18.60546875 C5.65510365 17.89201091 3.43231586 15.32260895 0.625 12.4375 C0.06683594 11.90705078 -0.49132812 11.37660156 -1.06640625 10.83007812 C-2.6484375 9.23828125 -2.6484375 9.23828125 -5 6.125 C-4.86753362 1.75963071 -4.45748667 0.18572861 0 0 Z " fill="#BDA85A" transform="translate(187,158.875)"/>
<path d="M0 0 C2 2 2 2 2.125 4.625 C2.08375 5.40875 2.0425 6.1925 2 7 C0.3962669 7.64690922 -1.20800306 8.29248764 -2.8125 8.9375 C-3.70582031 9.29714844 -4.59914063 9.65679687 -5.51953125 10.02734375 C-9.91780976 11.75202304 -13.25638157 12.25874282 -18 12 C-20 10 -20 10 -20.125 7.375 C-20.08375 6.59125 -20.0425 5.8075 -20 5 C-13.4382816 1.86495677 -7.43310574 -0.61942548 0 0 Z " fill="#BDA759" transform="translate(339,199)"/>
<path d="M0 0 C2.58457912 1.40923884 3.92656833 2.77846607 6 5 C6 6.65 6 8.3 6 10 C1.05 10 -3.9 10 -9 10 C-8.34 11.32 -7.68 12.64 -7 14 C-3.08355188 14.94284862 0.16423878 15.38087404 4 14 C3.67 14.99 3.34 15.98 3 17 C-5.00084617 18.60365544 -5.00084617 18.60365544 -9 16.1875 C-11.34384032 13.62392465 -11.92935499 12.63580506 -12.3125 9.1875 C-11.92835642 5.2692355 -10.70743683 3.78706733 -8 1 C-5.09704195 -0.45147903 -3.22738221 -0.37239025 0 0 Z " fill="#3C3C3C" transform="translate(402,366)"/>
<path d="M0 0 C2.8125 1.0625 2.8125 1.0625 5 3 C5.33 5.31 5.66 7.62 6 10 C1.05 10 -3.9 10 -9 10 C-5.74416814 15.26110455 -5.74416814 15.26110455 -2 15.375 C0.42599708 15.07175037 2.66722746 14.71777616 5 14 C5 14.66 5 15.32 5 16 C1.33755697 18.34396354 -1.72394153 18.52512999 -6 18 C-9.09242064 15.9603183 -10.67421425 14.48854954 -11.48046875 10.8046875 C-11.73232116 6.67975348 -11.56368197 4.67973414 -8.875 1.4375 C-5.51186116 -0.24406942 -3.71293499 -0.54146969 0 0 Z " fill="#393939" transform="translate(333,409)"/>
<path d="M0 0 C6.74629281 0.47342406 14.30800038 1.20533359 20 5 C20.3125 7.5 20.3125 7.5 20 10 C18 12 18 12 15.125 12.375 C10.09039704 12.25766815 1.62812726 10.62812726 -2 7 C-2.1875 4.5625 -2.1875 4.5625 -2 2 C-1.34 1.34 -0.68 0.68 0 0 Z " fill="#BDA758" transform="translate(161,199)"/>
<path d="M0 0 C3.1850357 1.76015131 3.83296972 2.49890916 5 6 C5.068991 8.06145107 5.08467727 10.12501401 5.0625 12.1875 C5.05347656 13.27417969 5.04445313 14.36085938 5.03515625 15.48046875 C5.02355469 16.31191406 5.01195312 17.14335937 5 18 C4.38125 17.814375 3.7625 17.62875 3.125 17.4375 C0.95839822 16.76313824 0.95839822 16.76313824 -1 18 C-4.48955396 18.30343947 -6.37505704 18.39470082 -9.375 16.5 C-9.91125 16.005 -10.4475 15.51 -11 15 C-10.25 10.25 -10.25 10.25 -8 8 C-5.6171875 7.8046875 -5.6171875 7.8046875 -2.875 7.875 C-1.50988281 7.90207031 -1.50988281 7.90207031 -0.1171875 7.9296875 C0.58148438 7.95289063 1.28015625 7.97609375 2 8 C1.67 6.68 1.34 5.36 1 4 C-4.55493924 2.97296252 -4.55493924 2.97296252 -10 4 C-9.67 3.01 -9.34 2.02 -9 1 C-5.94306678 -0.52846661 -3.37015453 -0.23242445 0 0 Z " fill="#3B3B3B" transform="translate(272,409)"/>
<path d="M0 0 C1.4540625 0.0309375 1.4540625 0.0309375 2.9375 0.0625 C5.58126941 6.06324174 7.70592702 11.46267009 7.9375 18.0625 C7.2775 19.0525 6.6175 20.0425 5.9375 21.0625 C3.4375 21.375 3.4375 21.375 0.9375 21.0625 C-3.21571932 16.90928068 -4.25757994 10.78333972 -4.3125 5.0625 C-4.20882071 0.0858943 -4.20882071 0.0858943 0 0 Z " fill="#BCA658" transform="translate(227.0625,135.9375)"/>
<path d="M0 0 C2.2421875 1.56640625 2.2421875 1.56640625 4 4 C4.390625 7.453125 4.390625 7.453125 4.25 11.25 C4.21390625 12.51328125 4.1778125 13.7765625 4.140625 15.078125 C4.07101563 16.52445312 4.07101563 16.52445312 4 18 C3.38125 17.814375 2.7625 17.62875 2.125 17.4375 C-0.04160178 16.76313824 -0.04160178 16.76313824 -2 18 C-6.05142119 18.25860135 -7.54337669 18.30441554 -11 16 C-11.375 13 -11.375 13 -11 10 C-7.79619983 7.86413322 -6.98060033 7.76867825 -3.3125 7.875 C-2.10013672 7.90207031 -2.10013672 7.90207031 -0.86328125 7.9296875 C0.05904297 7.96449219 0.05904297 7.96449219 1 8 C0.34 6.35 -0.32 4.7 -1 3 C-4.5219721 2.91995518 -7.61981469 2.95994298 -11 4 C-10.67 3.01 -10.34 2.02 -10 1 C-6.87057535 -0.56471233 -3.38917777 -0.69701958 0 0 Z " fill="#4A4A4A" transform="translate(247,366)"/>
<path d="M0 0 C1.99954746 -0.04254356 4.00041636 -0.04080783 6 0 C7 1 7 1 7.3125 4.9375 C7.27897641 10.1587993 5.83932322 17.16067678 2 21 C0.33382885 21.04063832 -1.33388095 21.042721 -3 21 C-5.13602764 16.7975978 -5.00139897 14.4368481 -3.75 9.9375 C-3.47671875 8.91527344 -3.2034375 7.89304688 -2.921875 6.83984375 C-2.12822469 4.39499725 -1.22984949 2.24932998 0 0 Z " fill="#BCA656" transform="translate(270,136)"/>
<path d="M0 0 C2.2109375 1.03515625 2.2109375 1.03515625 4 3 C4.29642569 5.71229503 4.38061189 7.99739732 4.25 10.6875 C4.23195313 11.38939453 4.21390625 12.09128906 4.1953125 12.81445312 C4.14826213 14.54355436 4.07651873 16.27195205 4 18 C3.01 17.67 2.02 17.34 1 17 C-1.30631829 17.24233055 -3.56050273 17.63568882 -5.84375 18.0390625 C-8 18 -8 18 -9.79296875 16.68359375 C-11 15 -11 15 -10.8125 12.4375 C-10 10 -10 10 -8 8 C-5.6171875 7.8046875 -5.6171875 7.8046875 -2.875 7.875 C-1.50988281 7.90207031 -1.50988281 7.90207031 -0.1171875 7.9296875 C0.58148438 7.95289063 1.28015625 7.97609375 2 8 C1.67 6.35 1.34 4.7 1 3 C-4.57830016 2.87530901 -4.57830016 2.87530901 -10 4 C-9.67 3.01 -9.34 2.02 -9 1 C-5.94306678 -0.52846661 -3.37015453 -0.23242445 0 0 Z " fill="#363636" transform="translate(355,366)"/>
<path d="M0 0 C3.375 0.875 3.375 0.875 5.375 2.875 C5.65422749 5.80688861 5.84643881 8.02890647 5.375 10.875 C3.30244557 13.33136081 2.01130966 13.76364581 -1.125 14.3125 C-4.52334723 13.71778924 -5.63741034 12.67234842 -7.625 9.875 C-8.23475382 6.21647708 -8.07043026 4.56987121 -6.0625 1.4375 C-3.625 -0.125 -3.625 -0.125 0 0 Z " fill="#F5F5F5" transform="translate(327.625,368.125)"/>
<path d="M0 0 C0.66 0 1.32 0 2 0 C2 8.58 2 17.16 2 26 C1.34 26 0.68 26 0 26 C-0.33 25.34 -0.66 24.68 -1 24 C-1.99 24.66 -2.98 25.32 -4 26 C-8.32351988 26.56045628 -10.29704773 26.4786058 -13.9375 24 C-16.22884945 20.66712807 -16.76573062 18.90166762 -16.47265625 14.94140625 C-15.58944986 11.31369073 -14.10340188 9.9633767 -11 8 C-7.88438446 7.84659957 -5.01622161 8.21478528 -2 9 C-1.67 9.33 -1.34 9.66 -1 10 C-0.67 6.7 -0.34 3.4 0 0 Z M-14 14 C-14.60975382 17.65852292 -14.44543026 19.30512879 -12.4375 22.4375 C-9.98268571 24.32042676 -9.98268571 24.32042676 -6.4375 24 C-3.02497107 23.27839081 -3.02497107 23.27839081 -1.0625 21.25 C0.24693207 18.47708502 0.60496057 17.02480283 0 14 C-2.42552614 11.43587237 -4.08196519 10.17912874 -7.5625 9.5 C-10.88912957 10.18238555 -12.04078918 11.24259218 -14 14 Z " fill="#3B3B3B" transform="translate(231,401)"/>
<path d="M0 0 C0.99 0 1.98 0 3 0 C3.33 5.28 3.66 10.56 4 16 C6.97 13.36 9.94 10.72 13 8 C13.99 8.33 14.98 8.66 16 9 C14.02 11.31 12.04 13.62 10 16 C12.31 18.97 14.62 21.94 17 25 C16.01 25.33 15.02 25.66 14 26 C12.99406757 24.8803014 11.9954151 23.7540588 11 22.625 C10.1646875 21.68527344 10.1646875 21.68527344 9.3125 20.7265625 C8 19 8 19 8 17 C5.93704708 18.10709491 5.93704708 18.10709491 4 20 C3.19053578 23.10197397 3.19053578 23.10197397 3 26 C2.01 26 1.02 26 0 26 C0 17.42 0 8.84 0 0 Z " fill="#4C4C4C" transform="translate(160,358)"/>
<path d="M0 0 C2.375 1.625 2.375 1.625 4 4 C4.44912849 7.14389944 4.504106 9.05480125 3 11.875 C-0.33905554 13.75321874 -3.20998874 13.30079454 -7 13 C-9 11 -9 11 -9.3125 7.0625 C-9.2339218 4.51564191 -9.13665953 3.24295027 -7.875 1 C-5.05480125 -0.504106 -3.14389944 -0.44912849 0 0 Z " fill="#F6F6F6" transform="translate(428,368)"/>
<path d="M0 0 C1.93681161 -0.08107583 3.8745934 -0.13922475 5.8125 -0.1875 C6.89144531 -0.22230469 7.97039062 -0.25710938 9.08203125 -0.29296875 C12 0 12 0 13.8984375 1.3515625 C15 3 15 3 14.8125 5.5625 C14 8 14 8 12 10 C9.1796875 10.1953125 9.1796875 10.1953125 5.875 10.125 C4.77929688 10.10695313 3.68359375 10.08890625 2.5546875 10.0703125 C1.71164063 10.04710937 0.86859375 10.02390625 0 10 C0 6.7 0 3.4 0 0 Z " fill="#F5F5F5" transform="translate(69,372)"/>
<path d="M0 0 C0.66 0 1.32 0 2 0 C2.33 3.3 2.66 6.6 3 10 C3.99 9.34 4.98 8.68 6 8 C9.80997107 7.42022179 11.53365777 7.72627739 14.875 9.6875 C18.1789229 14.83773276 17.39240655 20.04414061 17 26 C16.01 26 15.02 26 14 26 C13.93941406 25.07316406 13.87882813 24.14632813 13.81640625 23.19140625 C13.73261719 21.99386719 13.64882812 20.79632813 13.5625 19.5625 C13.48128906 18.36753906 13.40007812 17.17257812 13.31640625 15.94140625 C13.32343886 13.11429756 13.32343886 13.11429756 12 12 C8.54178598 11.74996036 8.54178598 11.74996036 5 12 C2.31907309 14.68092691 2.61329743 16.39167363 2.375 20.125 C2.30023438 21.22070312 2.22546875 22.31640625 2.1484375 23.4453125 C2.09945312 24.28835938 2.05046875 25.13140625 2 26 C1.34 26 0.68 26 0 26 C0 17.42 0 8.84 0 0 Z " fill="#545454" transform="translate(209,358)"/>
<path d="M0 0 C0.99 0 1.98 0 3 0 C3.33 4.62 3.66 9.24 4 14 C8.00254456 14.09181134 8.00254456 14.09181134 12 14 C13.87824891 12.12175109 13.39102397 8.96064724 13.5625 6.4375 C13.64628906 5.23996094 13.73007813 4.04242188 13.81640625 2.80859375 C13.87699219 1.88175781 13.93757812 0.95492188 14 0 C14.99 0 15.98 0 17 0 C17 5.94 17 11.88 17 18 C15.68 17.67 14.36 17.34 13 17 C12.34 17.33 11.68 17.66 11 18 C7.625 18.375 7.625 18.375 4 18 C1.10363265 15.2520331 0.07781636 13.66377354 -0.390625 9.66796875 C-0.34421875 8.51941406 -0.2978125 7.37085938 -0.25 6.1875 C-0.21390625 5.02605469 -0.1778125 3.86460937 -0.140625 2.66796875 C-0.07101563 1.34732422 -0.07101563 1.34732422 0 0 Z " fill="#4B4B4B" transform="translate(160,409)"/>
<path d="M0 0 C3.02921527 2.58591547 3.84825878 4.08955268 4.5 8 C3.84825878 11.91044732 3.02921527 13.41408453 0 16 C-3.05415148 16.98006353 -5.80529137 17.30751206 -9 17 C-11.92143417 15.23496686 -13.47923817 14.04152365 -15 11 C-15.43023798 7.12785818 -15.31669086 5.47503629 -13.125 2.1875 C-9.13124954 -1.9237137 -5.31917811 -1.36994818 0 0 Z M-12 5 C-12.61793165 8.70758991 -12.50197249 10.2935202 -10.3125 13.375 C-8.11424686 15.15192257 -8.11424686 15.15192257 -5.5 15.5 C-2.12986121 14.82597224 -0.98322993 13.7912125 1 11 C1.61793165 7.29241009 1.50197249 5.7064798 -0.6875 2.625 C-2.88575314 0.84807743 -2.88575314 0.84807743 -5.5 0.5 C-8.87013879 1.17402776 -10.01677007 2.2087875 -12 5 Z " fill="#4C4C4C" transform="translate(123,367)"/>
<path d="M0 0 C0.99 0 1.98 0 3 0 C3 0.66 3 1.32 3 2 C3.99 1.34 4.98 0.68 6 0 C12.06941176 -0.66211765 12.06941176 -0.66211765 15.20703125 1.5703125 C17.66636963 4.90301069 17.40157131 7.15757462 17.25 11.25 C17.21390625 12.51328125 17.1778125 13.7765625 17.140625 15.078125 C17.07101563 16.52445312 17.07101563 16.52445312 17 18 C16.34 18 15.68 18 15 18 C14.93941406 17.24074219 14.87882813 16.48148437 14.81640625 15.69921875 C14.73261719 14.70535156 14.64882812 13.71148437 14.5625 12.6875 C14.48128906 11.70136719 14.40007812 10.71523438 14.31640625 9.69921875 C14.08187441 6.90624401 14.08187441 6.90624401 13 4 C8.99745544 3.90818866 8.99745544 3.90818866 5 4 C3.12175109 5.87824891 3.60897603 9.03935276 3.4375 11.5625 C3.31181641 13.35880859 3.31181641 13.35880859 3.18359375 15.19140625 C3.12300781 16.11824219 3.06242188 17.04507812 3 18 C2.01 18 1.02 18 0 18 C0 12.06 0 6.12 0 0 Z " fill="#545454" transform="translate(188,409)"/>
<path d="M0 0 C0.66 0 1.32 0 2 0 C2.33 0.66 2.66 1.32 3 2 C3.99 1.34 4.98 0.68 6 0 C9.80997107 -0.57977821 11.53365777 -0.27372261 14.875 1.6875 C18.1789229 6.83773276 17.39240655 12.04414061 17 18 C16.01 18 15.02 18 14 18 C13.93941406 17.07316406 13.87882812 16.14632813 13.81640625 15.19140625 C13.73261719 13.99386719 13.64882813 12.79632813 13.5625 11.5625 C13.48128906 10.36753906 13.40007812 9.17257812 13.31640625 7.94140625 C13.32343886 5.11429756 13.32343886 5.11429756 12 4 C8.54178598 3.74996036 8.54178598 3.74996036 5 4 C2.31907309 6.68092691 2.61329743 8.39167363 2.375 12.125 C2.30023438 13.22070312 2.22546875 14.31640625 2.1484375 15.4453125 C2.09945313 16.28835938 2.05046875 17.13140625 2 18 C1.34 18 0.68 18 0 18 C0 12.06 0 6.12 0 0 Z " fill="#545454" transform="translate(276,366)"/>
<path d="M0 0 C1.60379341 -0.05416188 3.20811406 -0.09286638 4.8125 -0.125 C5.70582031 -0.14820313 6.59914063 -0.17140625 7.51953125 -0.1953125 C10 0 10 0 13 2 C13.3125 4.5 13.3125 4.5 13 7 C11 9 11 9 8.3984375 9.1953125 C7.40070313 9.17210937 6.40296875 9.14890625 5.375 9.125 C3.87066406 9.09792969 3.87066406 9.09792969 2.3359375 9.0703125 C1.56507812 9.04710937 0.79421875 9.02390625 0 9 C0 6.03 0 3.06 0 0 Z " fill="#F9F9F9" transform="translate(69,361)"/>
<path d="M0 0 C0.66 0.33 1.32 0.66 2 1 C2 1.66 2 2.32 2 3 C-0.97 3 -3.94 3 -7 3 C-7 4.32 -7 5.64 -7 7 C-4.98177083 7.45572917 -2.96354167 7.91145833 -0.9453125 8.3671875 C1 9 1 9 3 11 C2.8125 13.5 2.8125 13.5 2 16 C-1.77635253 18.51756835 -4.56365558 18.63772451 -9 18 C-11 16.5 -11 16.5 -12 15 C-11.34 14.67 -10.68 14.34 -10 14 C-9.34 14.33 -8.68 14.66 -8 15 C-6.62657169 15.0689472 -5.24997898 15.08467708 -3.875 15.0625 C-2.59625 15.041875 -1.3175 15.02125 0 15 C0 13.68 0 12.36 0 11 C-1.98567708 10.8046875 -3.97135417 10.609375 -5.95703125 10.4140625 C-8 10 -8 10 -11 8 C-11.42552252 5.23410362 -11.35833436 3.64948102 -10 1.1875 C-6.71320817 -0.76403265 -3.7786303 -0.23991304 0 0 Z " fill="#505050" transform="translate(380,366)"/>
<path d="M0 0 C0 0.99 0 1.98 0 3 C-1.32 3 -2.64 3 -4 3 C-4.33 4.65 -4.66 6.3 -5 8 C-3.35 8 -1.7 8 0 8 C0 8.66 0 9.32 0 10 C-1.65 10 -3.3 10 -5 10 C-5 15.28 -5 20.56 -5 26 C-5.99 26 -6.98 26 -8 26 C-8 20.72 -8 15.44 -8 10 C-8.99 10 -9.98 10 -11 10 C-11 9.34 -11 8.68 -11 8 C-10.01 8 -9.02 8 -8 8 C-8.061875 7.236875 -8.12375 6.47375 -8.1875 5.6875 C-8 3 -8 3 -6.8125 1.1875 C-4.44017475 -0.36678206 -2.77958655 -0.22537188 0 0 Z " fill="#474747" transform="translate(152,401)"/>
<path d="M0 0 C0.70125 0.01417969 1.4025 0.02835937 2.125 0.04296875 C3.176875 0.05263672 3.176875 0.05263672 4.25 0.0625 C6.125 0.23046875 6.125 0.23046875 8.125 1.23046875 C8.125 1.89046875 8.125 2.55046875 8.125 3.23046875 C5.155 3.23046875 2.185 3.23046875 -0.875 3.23046875 C-0.875 4.55046875 -0.875 5.87046875 -0.875 7.23046875 C1.14322917 7.68619792 3.16145833 8.14192708 5.1796875 8.59765625 C7.125 9.23046875 7.125 9.23046875 9.125 11.23046875 C8.9375 13.73046875 8.9375 13.73046875 8.125 16.23046875 C4.34864747 18.7480371 1.56134442 18.86819326 -2.875 18.23046875 C-4.875 16.73046875 -4.875 16.73046875 -5.875 15.23046875 C-5.215 14.90046875 -4.555 14.57046875 -3.875 14.23046875 C-3.215 14.56046875 -2.555 14.89046875 -1.875 15.23046875 C0.4579866 15.27069266 2.79206666 15.27367122 5.125 15.23046875 C5.455 14.24046875 5.785 13.25046875 6.125 12.23046875 C5.49851562 12.03710938 4.87203125 11.84375 4.2265625 11.64453125 C3.40929687 11.38414062 2.59203125 11.12375 1.75 10.85546875 C0.53183594 10.47261719 0.53183594 10.47261719 -0.7109375 10.08203125 C-2.875 9.23046875 -2.875 9.23046875 -4.875 7.23046875 C-4.51756259 3.65609462 -4.11108226 0.50532053 0 0 Z " fill="#3E3E3E" transform="translate(304.875,408.76953125)"/>
<path d="M0 0 C0.7940625 0.06703125 1.588125 0.1340625 2.40625 0.203125 C4.5 0.75 4.5 0.75 6.5 3.75 C5.81292969 3.66621094 5.12585938 3.58242188 4.41796875 3.49609375 C3.51691406 3.39425781 2.61585938 3.29242188 1.6875 3.1875 C0.79417969 3.08308594 -0.09914062 2.97867187 -1.01953125 2.87109375 C-3.63375572 2.59341291 -3.63375572 2.59341291 -6.5 3.75 C-6.5 7.05 -6.5 10.35 -6.5 13.75 C-0.43949386 14.8312391 -0.43949386 14.8312391 5.5 13.75 C5.17 14.74 4.84 15.73 4.5 16.75 C-3.50084617 18.35365544 -3.50084617 18.35365544 -7.5 15.9375 C-9.84384032 13.37392465 -10.42935499 12.38580506 -10.8125 8.9375 C-10.42835642 5.0192355 -9.20743683 3.53706733 -6.5 0.75 C-4.04048544 -0.47975728 -2.71743376 -0.26468511 0 0 Z " fill="#545454" transform="translate(193.5,366.25)"/>
<path d="M0 0 C2.4375 2 2.4375 2 4 4 C2.34228222 4 0.68400949 3.98873697 -0.97265625 3.9296875 C-2.98121994 3.87712695 -4.99176042 3.93624636 -7 4 C-9.29827312 5.87938172 -9.29827312 5.87938172 -9.3125 8.9375 C-9.22697575 11.92260047 -9.22697575 11.92260047 -7.875 13.875 C-4.57396578 15.85562053 -1.27138035 15.26765902 2.375 14.5 C2.91125 14.335 3.4475 14.17 4 14 C1.62054913 17.04569711 0.44141882 17.92776783 -3.4375 18.5625 C-7 18 -7 18 -9.9375 16 C-12.23092162 12.66411401 -12.75815509 10.90015906 -12.48046875 6.9375 C-10.87668188 0.47019684 -5.97890261 -0.97836588 0 0 Z " fill="#414141" transform="translate(147,366)"/>
<path d="M0 0 C0.05395478 1.62463842 0.09277195 3.24978541 0.125 4.875 C0.14820313 5.77992188 0.17140625 6.68484375 0.1953125 7.6171875 C0 10 0 10 -2 12 C-4.5 11.8125 -4.5 11.8125 -7 11 C-9 8 -9 8 -8.8125 4.9375 C-7.43258835 -0.05141136 -4.65835311 -0.25180287 0 0 Z " fill="#EEEEEE" transform="translate(467,311)"/>
<path d="M0 0 C1 1 1 1 1.0625 4.0625 C1.041875 5.031875 1.02125 6.00125 1 7 C-1.40545638 8.20272819 -2.94996953 8.10071472 -5.625 8.0625 C-6.85089844 8.04896484 -6.85089844 8.04896484 -8.1015625 8.03515625 C-9.04128906 8.01775391 -9.04128906 8.01775391 -10 8 C-10.59375 6.140625 -10.59375 6.140625 -11 4 C-8.01319913 -0.4802013 -5.12911709 -0.48387897 0 0 Z " fill="#F2F2F2" transform="translate(377,293)"/>
<path d="M0 0 C0.99 0 1.98 0 3 0 C3 8.58 3 17.16 3 26 C2.01 26 1.02 26 0 26 C0 17.42 0 8.84 0 0 Z " fill="#535353" transform="translate(96,358)"/>
<path d="M0 0 C1.8871875 0.061875 1.8871875 0.061875 3.8125 0.125 C4.1425 0.785 4.4725 1.445 4.8125 2.125 C0.3575 2.62 0.3575 2.62 -4.1875 3.125 C-4.5175 4.445 -4.8475 5.765 -5.1875 7.125 C0.13420494 7.42062367 0.13420494 7.42062367 4.8125 5.125 C5.54215366 2.56217258 5.54215366 2.56217258 5.8125 0.125 C6.1425 0.125 6.4725 0.125 6.8125 0.125 C6.8125 3.425 6.8125 6.725 6.8125 10.125 C5.8225 9.795 4.8325 9.465 3.8125 9.125 C2.8225 9.62 2.8225 9.62 1.8125 10.125 C-2.23892119 10.38360135 -3.73087669 10.42941554 -7.1875 8.125 C-7.5625 5.125 -7.5625 5.125 -7.1875 2.125 C-4.09861478 0.06574319 -3.47814073 -0.1140374 0 0 Z " fill="#3F3F3F" transform="translate(243.1875,373.875)"/>
<path d="M0 0 C1.76171875 1.328125 1.76171875 1.328125 3 3 C3.1875 6.6875 3.1875 6.6875 3 10 C2.01 10.495 2.01 10.495 1 11 C0.67 8.36 0.34 5.72 0 3 C-3.98667704 2.20163999 -3.98667704 2.20163999 -8 2 C-11.04062507 4.16044413 -12.54290754 6.60011759 -14 10 C-14.59878587 3.77262693 -14.59878587 3.77262693 -12.0625 0.5 C-7.914064 -1.53188702 -4.39446307 -1.37429837 0 0 Z " fill="#414141" transform="translate(123,367)"/>
<path d="M0 0 C2.3125 1.875 2.3125 1.875 4 4 C4 4.66 4 5.32 4 6 C-0.29 6 -4.58 6 -9 6 C-6.72136544 0.3034136 -5.91702899 -0.70440821 0 0 Z " fill="#F2F2F2" transform="translate(333,411)"/>
<path d="M0 0 C3.0625 0.3125 3.0625 0.3125 4.9375 1.625 C6.0625 3.3125 6.0625 3.3125 6.0625 6.3125 C2.1025 6.3125 -1.8575 6.3125 -5.9375 6.3125 C-4.47848361 0.47643443 -4.47848361 0.47643443 0 0 Z " fill="#F2F2F2" transform="translate(398.9375,367.6875)"/>
<path d="M0 0 C0.66 0 1.32 0 2 0 C2 8.58 2 17.16 2 26 C1.34 26 0.68 26 0 26 C0 24.68 0 23.36 0 22 C-0.66 21.67 -1.32 21.34 -2 21 C-1.855625 20.13375 -1.71125 19.2675 -1.5625 18.375 C-0.68046473 12.28895665 -0.39975269 6.13237637 0 0 Z " fill="#313131" transform="translate(231,401)"/>
<path d="M0 0 C0.66 0 1.32 0 2 0 C2.33 0.66 2.66 1.32 3 2 C3.99 1.34 4.98 0.68 6 0 C6.99 0 7.98 0 9 0 C9 0.99 9 1.98 9 3 C7.7934375 3.4640625 7.7934375 3.4640625 6.5625 3.9375 C4.10919595 4.76335345 4.10919595 4.76335345 3 6 C2.76572222 8.01594582 2.58663876 10.038474 2.4375 12.0625 C2.31181641 13.71958984 2.31181641 13.71958984 2.18359375 15.41015625 C2.12300781 16.26480469 2.06242187 17.11945313 2 18 C1.34 18 0.68 18 0 18 C0 12.06 0 6.12 0 0 Z " fill="#3B3B3B" transform="translate(349,409)"/>
<path d="M0 0 C0.66 0 1.32 0 2 0 C2.33 0.66 2.66 1.32 3 2 C3.99 1.34 4.98 0.68 6 0 C6.99 0 7.98 0 9 0 C9 0.99 9 1.98 9 3 C7.7934375 3.4640625 7.7934375 3.4640625 6.5625 3.9375 C4.10919595 4.76335345 4.10919595 4.76335345 3 6 C2.76572222 8.01594582 2.58663876 10.038474 2.4375 12.0625 C2.31181641 13.71958984 2.31181641 13.71958984 2.18359375 15.41015625 C2.12300781 16.26480469 2.06242188 17.11945313 2 18 C1.34 18 0.68 18 0 18 C0 12.06 0 6.12 0 0 Z " fill="#3B3B3B" transform="translate(245,409)"/>
<path d="M0 0 C0.33 0 0.66 0 1 0 C1.309375 1.134375 1.61875 2.26875 1.9375 3.4375 C2.62924531 6.78775099 2.62924531 6.78775099 4 8 C6.01964199 8.07244053 8.04167124 8.08377188 10.0625 8.0625 C11.16722656 8.05347656 12.27195312 8.04445313 13.41015625 8.03515625 C14.26480469 8.02355469 15.11945313 8.01195312 16 8 C15.67 9.32 15.34 10.64 15 12 C14.67 11.34 14.34 10.68 14 10 C13.01 10.66 12.02 11.32 11 12 C7.625 12.5 7.625 12.5 4 12 C0.91584964 9.17833052 -0.81539827 7.38451299 -1.375 3.1875 C-1 1 -1 1 0 0 Z " fill="#3D3D3D" transform="translate(417,372)"/>
<path d="M0 0 C1.23556641 0.01740234 1.23556641 0.01740234 2.49609375 0.03515625 C3.32238281 0.04417969 4.14867187 0.05320312 5 0.0625 C5.63808594 0.07410156 6.27617187 0.08570313 6.93359375 0.09765625 C6.55859375 2.53515625 6.55859375 2.53515625 5.93359375 5.09765625 C3.2248004 6.45205293 0.92426107 6.16267076 -2.06640625 6.09765625 C-2.44859392 4.44150968 -2.78035727 2.77308601 -3.06640625 1.09765625 C-2.06640625 0.09765625 -2.06640625 0.09765625 0 0 Z " fill="#F4F4F4" transform="translate(267.06640625,418.90234375)"/>
<path d="M0 0 C0.33 0 0.66 0 1 0 C1.04898437 1.10859375 1.09796875 2.2171875 1.1484375 3.359375 C1.22349215 4.82294065 1.29903881 6.28648112 1.375 7.75 C1.4059375 8.47960937 1.436875 9.20921875 1.46875 9.9609375 C1.80394886 16.10624988 3.27959698 19.26494161 7 24 C6.01 24 5.02 24 4 24 C3.67 24.66 3.34 25.32 3 26 C2.01 26 1.02 26 0 26 C0 17.42 0 8.84 0 0 Z " fill="#646464" transform="translate(317,358)"/>
<path d="M0 0 C0.66 0 1.32 0 2 0 C2.84831606 8.82248707 3.04865737 17.19127807 2 26 C1.34 26 0.68 26 0 26 C0 17.42 0 8.84 0 0 Z " fill="#303030" transform="translate(209,358)"/>
<path d="M0 0 C2.97 0 5.94 0 9 0 C8.67 1.65 8.34 3.3 8 5 C1.25 6.125 1.25 6.125 -1 5 C-0.67 3.35 -0.34 1.7 0 0 Z " fill="#F6F6F6" transform="translate(239,376)"/>
<path d="M0 0 C1.23556641 0.01740234 1.23556641 0.01740234 2.49609375 0.03515625 C3.32238281 0.04417969 4.14867187 0.05320312 5 0.0625 C5.63808594 0.07410156 6.27617187 0.08570313 6.93359375 0.09765625 C6.36014438 2.96490311 6.07214225 3.95910775 3.93359375 6.09765625 C0.80859375 6.22265625 0.80859375 6.22265625 -2.06640625 6.09765625 C-2.44859392 4.44150968 -2.78035727 2.77308601 -3.06640625 1.09765625 C-2.06640625 0.09765625 -2.06640625 0.09765625 0 0 Z " fill="#F7F7F7" transform="translate(350.06640625,375.90234375)"/>
<path d="M0 0 C2.38928899 1.44870916 3.99304891 2.99304891 6 5 C6 5.66 6 6.32 6 7 C5.01 7.33 4.02 7.66 3 8 C2.62875 7.175 2.2575 6.35 1.875 5.5 C0.20910483 2.70795561 0.20910483 2.70795561 -2.9375 2.375 C-6.15126114 2.73768638 -6.15126114 2.73768638 -8.25 5.25 C-9.66060092 7.4666586 -10.93426296 9.60209165 -12 12 C-12.35671933 8.16526716 -12.29771416 6.44657125 -10.125 3.1875 C-6.82949019 -0.20493657 -4.68335942 -0.54038763 0 0 Z " fill="#494949" transform="translate(402,366)"/>
<path d="M0 0 C0.99 0 1.98 0 3 0 C3 5.94 3 11.88 3 18 C2.34 18 1.68 18 1 18 C1 16.68 1 15.36 1 14 C0.34 13.67 -0.32 13.34 -1 13 C-0.67 8.71 -0.34 4.42 0 0 Z " fill="#4C4C4C" transform="translate(174,409)"/>
<path d="M0 0 C3.1850357 1.76015131 3.83296972 2.49890916 5 6 C5.068991 8.06145107 5.08467727 10.12501401 5.0625 12.1875 C5.05347656 13.27417969 5.04445313 14.36085938 5.03515625 15.48046875 C5.02355469 16.31191406 5.01195312 17.14335937 5 18 C4.67 18 4.34 18 4 18 C3.95101563 17.32453125 3.90203125 16.6490625 3.8515625 15.953125 C3.77679688 15.06109375 3.70203125 14.1690625 3.625 13.25 C3.55539062 12.36828125 3.48578125 11.4865625 3.4140625 10.578125 C2.99149077 7.947018 2.49780566 6.20177433 1 4 C-2.91644812 3.05715138 -6.16423878 2.61912596 -10 4 C-9.67 3.01 -9.34 2.02 -9 1 C-5.94306678 -0.52846661 -3.37015453 -0.23242445 0 0 Z " fill="#5A5A5A" transform="translate(272,409)"/>
<path d="M0 0 C2.3828125 0.0234375 2.3828125 0.0234375 5.125 0.375 C6.03507812 0.48585938 6.94515625 0.59671875 7.8828125 0.7109375 C8.93082031 0.85402344 8.93082031 0.85402344 10 1 C10 1.33 10 1.66 10 2 C5.545 2.495 5.545 2.495 1 3 C1 4.32 1 5.64 1 7 C3.31 7 5.62 7 8 7 C8.33 7.66 8.66 8.32 9 9 C7.56589632 9.24954005 6.12739928 9.47392642 4.6875 9.6875 C3.88699219 9.81511719 3.08648437 9.94273437 2.26171875 10.07421875 C0 10 0 10 -1.8046875 8.6796875 C-3 7 -3 7 -2.8125 4.4375 C-2 2 -2 2 0 0 Z " fill="#444444" transform="translate(347,374)"/>
<path d="M0 0 C0.66 0.99 1.32 1.98 2 3 C1.31292969 2.91621094 0.62585938 2.83242188 -0.08203125 2.74609375 C-0.98308594 2.64425781 -1.88414062 2.54242188 -2.8125 2.4375 C-3.70582031 2.33308594 -4.59914062 2.22867187 -5.51953125 2.12109375 C-8.13375572 1.84341291 -8.13375572 1.84341291 -11 3 C-12.22969878 6.51190809 -12.22969878 6.51190809 -13 10 C-13.33 10 -13.66 10 -14 10 C-14.59878587 3.77262693 -14.59878587 3.77262693 -12.0625 0.5 C-7.95116097 -1.51371708 -4.35318618 -1.42825558 0 0 Z " fill="#434343" transform="translate(198,367)"/>
<path d="M0 0 C2.8125 1.25 2.8125 1.25 5 3 C5.8125 5.1875 5.8125 5.1875 6 7 C1.125 4.125 1.125 4.125 0 3 C-5.02499694 3.28469203 -5.02499694 3.28469203 -9 6 C-9.66 6 -10.32 6 -11 6 C-8.65391401 0.58595541 -5.78421931 -0.57842193 0 0 Z " fill="#4A4A4A" transform="translate(333,409)"/>
<path d="M0 0 C4.43895554 -0.35991531 4.43895554 -0.35991531 6.65625 1.0625 C8.71722894 4.03414405 8.28541354 6.62997456 8.1875 10.1875 C8.16042969 11.45980469 8.13335937 12.73210937 8.10546875 14.04296875 C8.07066406 15.01878906 8.03585938 15.99460937 8 17 C7.34 17 6.68 17 6 17 C5.95101562 16.25234375 5.90203125 15.5046875 5.8515625 14.734375 C5.77679688 13.74953125 5.70203125 12.7646875 5.625 11.75 C5.52058594 10.28820312 5.52058594 10.28820312 5.4140625 8.796875 C5.0067578 6.04564704 4.50814655 4.31864708 3 2 C2.01 1.34 1.02 0.68 0 0 Z " fill="#303030" transform="translate(197,410)"/>
<path d="M0 0 C0.66 0.33 1.32 0.66 2 1 C2 1.66 2 2.32 2 3 C-0.97 3 -3.94 3 -7 3 C-7 4.32 -7 5.64 -7 7 C-7 7.66 -7 8.32 -7 9 C-8.32 8.67 -9.64 8.34 -11 8 C-11.21620175 5.3335118 -11.30894168 3.55995679 -10 1.1875 C-6.71320817 -0.76403265 -3.7786303 -0.23991304 0 0 Z " fill="#454545" transform="translate(380,366)"/>
<path d="M0 0 C0.66 0 1.32 0 2 0 C2 3.63 2 7.26 2 11 C2.66 11 3.32 11 4 11 C2.92598892 13.91517292 2.22189824 15.77810176 0 18 C0 12.06 0 6.12 0 0 Z " fill="#373737" transform="translate(318,358)"/>
<path d="M0 0 C0.66 0 1.32 0 2 0 C1.76435605 4.08449505 1.59037881 6.34214932 -1.1875 9.4375 C-4.41176773 11.22875985 -6.36804503 11.33785628 -10 11 C-10.33 10.34 -10.66 9.68 -11 9 C-9.741875 8.814375 -8.48375 8.62875 -7.1875 8.4375 C-4.58129396 7.8147782 -3.36939111 7.52099789 -1.80078125 5.30859375 C-0.87461627 3.16740924 -0.87461627 3.16740924 0 0 Z " fill="#3B3B3B" transform="translate(334,373)"/>
<path d="M0 0 C0.66 0 1.32 0 2 0 C3.50875941 6.03503763 2.64186094 11.89738369 2 18 C1.34 18 0.68 18 0 18 C0 12.06 0 6.12 0 0 Z " fill="#303030" transform="translate(276,366)"/>
<path d="M0 0 C0.804375 0.7425 0.804375 0.7425 1.625 1.5 C5.21801986 3.7692757 8.31815725 3.35407216 12.375 2.5 C12.91125 2.335 13.4475 2.17 14 2 C14 2.66 14 3.32 14 4 C10.35187527 6.33479983 7.25812212 6.38018947 3 6 C0.5625 4.5 0.5625 4.5 -1 3 C-0.67 2.01 -0.34 1.02 0 0 Z " fill="#414141" transform="translate(324,421)"/>
<path d="M0 0 C0.8353125 1.051875 0.8353125 1.051875 1.6875 2.125 C4.09124732 5.11344261 6.53810432 8.05940238 9 11 C8.01 11.33 7.02 11.66 6 12 C4.99406757 10.8803014 3.9954151 9.7540588 3 8.625 C2.443125 7.99851562 1.88625 7.37203125 1.3125 6.7265625 C0 5 0 5 0 3 C-0.66 2.67 -1.32 2.34 -2 2 C-1.34 1.34 -0.68 0.68 0 0 Z " fill="#424242" transform="translate(168,372)"/>
<path d="M0 0 C1.17755859 0.11408203 1.17755859 0.11408203 2.37890625 0.23046875 C4.4375 0.8125 4.4375 0.8125 6.4375 3.8125 C3.4375 3.8125 3.4375 3.8125 0 3.1875 C-3.51306078 2.81770413 -4.72017128 2.87971647 -7.5625 4.8125 C-7.5625 3.8225 -7.5625 2.8325 -7.5625 1.8125 C-4.29333718 -0.36694188 -3.69969614 -0.42055854 0 0 Z " fill="#484848" transform="translate(224.5625,409.1875)"/>
<path d="M0 0 C0.99 0.33 1.98 0.66 3 1 C3.33 1.99 3.66 2.98 4 4 C7.3 4 10.6 4 14 4 C13.67 4.99 13.34 5.98 13 7 C12.01 7 11.02 7 10 7 C9.030625 7.061875 8.06125 7.12375 7.0625 7.1875 C3.61816774 6.97662251 2.33440047 6.51396973 0 4 C0 2.68 0 1.36 0 0 Z " fill="#4F4F4F" transform="translate(261,420)"/>
<path d="M0 0 C2.4375 2 2.4375 2 4 4 C3.01 4.33 2.02 4.66 1 5 C1 4.34 1 3.68 1 3 C-4.57830016 2.87530901 -4.57830016 2.87530901 -10 4 C-9.67 3.01 -9.34 2.02 -9 1 C-5.90826248 -0.54586876 -3.40570448 -0.29359521 0 0 Z " fill="#474747" transform="translate(355,366)"/>
<path d="M0 0 C0.66 0 1.32 0 2 0 C3.54163175 3.0832635 3.29747535 5.60878099 3 9 C1 10.9375 1 10.9375 -1 12 C-1.66 11.67 -2.32 11.34 -3 11 C-2.484375 10.46375 -1.96875 9.9275 -1.4375 9.375 C0.47545079 6.2144726 -0.21992185 4.51035166 -1 1 C-0.67 0.67 -0.34 0.34 0 0 Z " fill="#454545" transform="translate(83,372)"/>
<path d="M0 0 C0.99 0.33 1.98 0.66 3 1 C3.33 3.31 3.66 5.62 4 8 C4.99 8.33 5.98 8.66 7 9 C7.33 9.99 7.66 10.98 8 12 C4.12812449 10.74425659 1.93162483 9.65992073 0 6 C-0.1875 2.75 -0.1875 2.75 0 0 Z " fill="#545454" transform="translate(108,372)"/>
<path d="M0 0 C0.33 0 0.66 0 1 0 C1 3.3 1 6.6 1 10 C0.01 9.67 -0.98 9.34 -2 9 C-2.99 9.495 -2.99 9.495 -4 10 C-5.99960012 10.039992 -8.00047242 10.04346799 -10 10 C-7 8 -7 8 -3.875 6.6875 C-0.76576022 5.28986309 -0.76576022 5.28986309 -0.125 2.3125 C-0.08375 1.549375 -0.0425 0.78625 0 0 Z " fill="#454545" transform="translate(249,374)"/>
<path d="M0 0 C-0.33 0.99 -0.66 1.98 -1 3 C-2.45736087 3.19491452 -3.91594593 3.38069358 -5.375 3.5625 C-6.18710937 3.66691406 -6.99921875 3.77132813 -7.8359375 3.87890625 C-10 4 -10 4 -12 3 C-12 2.34 -12 1.68 -12 1 C-9.98177083 1.03255208 -7.96354167 1.06510417 -5.9453125 1.09765625 C-3.67210333 0.98353932 -2.2885712 0 0 0 Z " fill="#434343" transform="translate(406,380)"/>
<path d="M0 0 C-0.33 1.32 -0.66 2.64 -1 4 C-4.33333333 4 -7.66666667 4 -11 4 C-9 1 -9 1 -6.0625 0.3125 C-3 0 -3 0 0 0 Z " fill="#6A6A6A" transform="translate(175,423)"/>
<path d="M0 0 C6.4 -0.49230769 6.4 -0.49230769 9.4375 2 C10.2109375 2.99 10.2109375 2.99 11 4 C7.58900832 4 4.36911686 3.50854594 1 3 C0.67 2.01 0.34 1.02 0 0 Z " fill="#616161" transform="translate(140,366)"/>
<path d="M0 0 C1.86323318 0.25288812 3.71708432 0.57690153 5.5625 0.9375 C6.57441406 1.13214844 7.58632813 1.32679688 8.62890625 1.52734375 C9.80259766 1.76130859 9.80259766 1.76130859 11 2 C10.67 2.66 10.34 3.32 10 4 C2.49230769 4.36923077 2.49230769 4.36923077 0 2.5 C-0.33 2.005 -0.66 1.51 -1 1 C-0.67 0.67 -0.34 0.34 0 0 Z " fill="#464646" transform="translate(369,380)"/>
<path d="M0 0 C0 0.66 0 1.32 0 2 C-3.3 2.66 -6.6 3.32 -10 4 C-9.67 3.01 -9.34 2.02 -9 1 C-6.04335481 -0.4783226 -3.25770263 -0.06032783 0 0 Z " fill="#484848" transform="translate(272,409)"/>
<path d="M0 0 C0 0.99 0 1.98 0 3 C-1.423125 3.12375 -1.423125 3.12375 -2.875 3.25 C-6.10461791 3.65074923 -6.10461791 3.65074923 -7.375 6.0625 C-7.58125 6.701875 -7.7875 7.34125 -8 8 C-8.36075949 3.55063291 -8.36075949 3.55063291 -6.8125 1.1875 C-4.44017475 -0.36678206 -2.77958655 -0.22537188 0 0 Z " fill="#565656" transform="translate(152,401)"/>
<path d="M0 0 C2.3828125 0.0234375 2.3828125 0.0234375 5.125 0.375 C6.03507812 0.48585938 6.94515625 0.59671875 7.8828125 0.7109375 C8.93082031 0.85402344 8.93082031 0.85402344 10 1 C10 1.33 10 1.66 10 2 C9.37351562 2.03738281 8.74703125 2.07476562 8.1015625 2.11328125 C7.28429687 2.17902344 6.46703125 2.24476563 5.625 2.3125 C4.40683594 2.39951172 4.40683594 2.39951172 3.1640625 2.48828125 C0.62078662 2.82990528 0.62078662 2.82990528 -1 6 C-1.625 4.125 -1.625 4.125 -2 2 C-1.34 1.34 -0.68 0.68 0 0 Z " fill="#505050" transform="translate(347,374)"/>
<path d="M0 0 C-1.33333333 0.66666667 -2.66666667 1.33333333 -4 2 C-4.680625 2.37125 -5.36125 2.7425 -6.0625 3.125 C-8 4 -8 4 -11 4 C-10.67 3.01 -10.34 2.02 -10 1 C-6.78548731 -0.60725635 -3.56387464 -0.05748185 0 0 Z " fill="#585858" transform="translate(247,366)"/>
<path d="M0 0 C2.375 0.25 2.375 0.25 5 1 C6.3125 3.0625 6.3125 3.0625 7 5 C6.34 5 5.68 5 5 5 C4.67 5.99 4.34 6.98 4 8 C3.896875 7.401875 3.79375 6.80375 3.6875 6.1875 C2.90868872 3.7094641 1.8892008 2.72492247 0 1 C0 0.67 0 0.34 0 0 Z " fill="#5C5C5C" transform="translate(78,359)"/>
<path d="M0 0 C3.3 0.99 6.6 1.98 10 3 C10 3.33 10 3.66 10 4 C2.49230769 4.36923077 2.49230769 4.36923077 0 2.5 C-0.33 2.005 -0.66 1.51 -1 1 C-0.67 0.67 -0.34 0.34 0 0 Z " fill="#4E4E4E" transform="translate(300,423)"/>
<path d="M0 0 C-2.71182212 2.60334924 -3.89133813 2.99456691 -7.75 3.1875 C-8.8225 3.125625 -9.895 3.06375 -11 3 C-4.33333333 -1.44444444 -4.33333333 -1.44444444 0 0 Z " fill="#4E4E4E" transform="translate(231,424)"/>
<path d="M0 0 C7.75 -0.125 7.75 -0.125 10 1 C10 1.66 10 2.32 10 3 C8.5199159 2.88637738 7.04089926 2.75877092 5.5625 2.625 C4.73878906 2.55539062 3.91507812 2.48578125 3.06640625 2.4140625 C2.38449219 2.27742188 1.70257813 2.14078125 1 2 C0.67 1.34 0.34 0.68 0 0 Z " fill="#4B4B4B" transform="translate(303,409)"/>
<path d="M0 0 C4.51720311 -0.36625971 4.51720311 -0.36625971 6.8125 1.375 C8 3 8 3 8 5 C7.01 5.33 6.02 5.66 5 6 C4.731875 5.38125 4.46375 4.7625 4.1875 4.125 C3.04443152 1.7004767 3.04443152 1.7004767 0 0 Z " fill="#404040" transform="translate(197,410)"/>
<path d="M0 0 C-0.33 0.99 -0.66 1.98 -1 3 C-3.31 3.33 -5.62 3.66 -8 4 C-8.33 3.34 -8.66 2.68 -9 2 C-2.25 0 -2.25 0 0 0 Z " fill="#3D3D3D" transform="translate(199,380)"/>
<path d="M0 0 C1.65 1.65 3.3 3.3 5 5 C4.01 5.495 4.01 5.495 3 6 C1.68 5.01 0.36 4.02 -1 3 C-0.67 2.01 -0.34 1.02 0 0 Z " fill="#545454" transform="translate(324,421)"/>
<path d="M0 0 C-0.33 1.32 -0.66 2.64 -1 4 C-1.33 3.34 -1.66 2.68 -2 2 C-2.99 2.495 -2.99 2.495 -4 3 C-6.3400417 2.71758117 -8.67504723 2.38749213 -11 2 C-11 1.67 -11 1.34 -11 1 C-7.26513121 0.4254048 -3.78706732 0 0 0 Z " fill="#646464" transform="translate(433,380)"/>
</svg>
